<?xml version="1.0" encoding="UTF-8"?>
<svg width="372px" height="159px" viewBox="0 0 372 159" version="1.1" xmlns="http://www.w3.org/2000/svg" xmlns:xlink="http://www.w3.org/1999/xlink">
    <!-- Generator: sketchtool 52.4 (67378) - http://www.bohemiancoding.com/sketch -->
    <title>D1D8F293-8459-4177-AC7D-253E255F056E</title>
    <desc>Created with sketchtool.</desc>
    <defs>
        <filter x="-15.6%" y="-36.5%" width="131.2%" height="173.0%" filterUnits="objectBoundingBox" id="filter-1">
            <feOffset dx="0" dy="10" in="SourceAlpha" result="shadowOffsetOuter1"></feOffset>
            <feGaussianBlur stdDeviation="10" in="shadowOffsetOuter1" result="shadowBlurOuter1"></feGaussianBlur>
            <feColorMatrix values="0 0 0 0 0   0 0 0 0 0   0 0 0 0 0  0 0 0 0.2 0" type="matrix" in="shadowBlurOuter1" result="shadowMatrixOuter1"></feColorMatrix>
            <feMerge>
                <feMergeNode in="shadowMatrixOuter1"></feMergeNode>
                <feMergeNode in="SourceGraphic"></feMergeNode>
            </feMerge>
        </filter>
    </defs>
    <g id="Application-Screens-Mobile" stroke="none" stroke-width="1" fill="none" fill-rule="evenodd">
        <g id="00_todoapp-welcome" transform="translate(-1.000000, -131.000000)">
            <g id="logotype" filter="url(#filter-1)" transform="translate(1.000000, 131.000000)">
                <path d="M54.4832514,89.3521574 C57.7237472,89.3521574 61.6122838,88.6489072 66.1489779,87.2423858 L66.1489779,100.925761 C61.5312714,102.975264 55.8604888,104 49.1364601,104 C41.723826,104 36.3264562,102.14141 32.9441887,98.4241751 C29.5619212,94.70694 27.8708128,89.1311708 27.8708128,81.6967005 L27.8708128,49.2062183 L19,49.2062183 L19,41.430203 L29.2075107,35.2817259 L34.554302,21.0558376 L46.4023054,21.0558376 L46.4023054,35.4022843 L65.41987,35.4022843 L65.41987,49.2062183 L46.4023054,49.2062183 L46.4023054,81.6967005 C46.4023054,84.3088117 47.1415324,86.2377264 48.6200086,87.4835025 C50.0984848,88.7292786 52.0528795,89.3521574 54.4832514,89.3521574 Z M175.026685,104 C167.046965,104 160.778725,100.925792 156.221777,94.7772843 C151.66483,88.6287764 149.386391,80.109403 149.386391,69.2189086 C149.386391,58.1676689 151.705336,49.5578777 156.343295,43.3892766 C160.981255,37.2206756 167.371012,34.1364213 175.512757,34.1364213 C184.059565,34.1364213 190.580965,37.4316506 195.077153,44.0222081 L195.684743,44.0222081 C194.7531,38.9989174 194.287286,34.5182092 194.287286,30.5799492 L194.287286,9 L212.879537,9 L212.879537,102.794416 L198.661933,102.794416 L195.077153,94.053934 L194.287286,94.053934 C190.074641,100.684678 183.654505,104 175.026685,104 Z M181.527898,89.3521574 C186.267123,89.3521574 189.740477,87.9858428 191.948065,85.2531726 C194.155652,82.5205024 195.360694,77.8790514 195.563225,71.3286802 L195.563225,69.339467 C195.563225,62.1059283 194.439195,56.92197 192.191101,53.7874365 C189.943007,50.6529031 186.287377,49.0856599 181.224103,49.0856599 C177.09247,49.0856599 173.882402,50.8236924 171.593802,54.2998096 C169.305202,57.7759269 168.160919,62.8292816 168.160919,69.4600254 C168.160919,76.0907692 169.315329,81.0637525 171.624182,84.3791244 C173.933035,87.6944963 177.234241,89.3521574 181.527898,89.3521574 Z M353,82.7817259 C353,89.693774 350.579791,94.9581037 345.7393,98.5748731 C340.89881,102.191642 333.658436,104 324.017961,104 C319.076205,104 314.863623,103.668468 311.38009,103.005393 C307.896557,102.342319 304.635857,101.367815 301.597893,100.081853 L301.597893,84.8914975 C305.040919,86.4989505 308.91933,87.8451722 313.23324,88.930203 C317.54715,90.0152339 321.344549,90.5577411 324.625551,90.5577411 C331.349579,90.5577411 334.711543,88.6288264 334.711543,84.7709391 C334.711543,83.3242313 334.265982,82.1487989 333.374846,81.2446066 C332.483709,80.3404143 330.944497,79.3156783 328.757162,78.170368 C326.569828,77.0250577 323.653425,75.6888824 320.007867,74.161802 C314.782568,71.9917404 310.944663,69.9824543 308.494038,68.1338832 C306.043413,66.2853122 304.261167,64.1655153 303.147247,61.7744289 C302.033327,59.3833425 301.476375,56.4397383 301.476375,52.9435279 C301.476375,46.9557653 303.815573,42.3243607 308.494038,39.0491751 C313.172504,35.7739895 319.805294,34.1364213 328.392608,34.1364213 C336.57486,34.1364213 344.534208,35.9045931 352.270892,39.4409898 L346.681065,52.7024112 C343.278544,51.2557034 340.098855,50.0702246 337.141903,49.1459391 C334.184951,48.2216536 331.167284,47.7595178 328.088813,47.7595178 C322.620477,47.7595178 319.886349,49.2262967 319.886349,52.1598985 C319.886349,53.8075378 320.767346,55.234131 322.529365,56.4397208 C324.291385,57.6453106 328.149542,59.4335753 334.103953,61.8045685 C339.410265,63.9344438 343.298802,65.9236371 345.76968,67.7722081 C348.240558,69.6207791 350.06331,71.7506225 351.237989,74.161802 C352.412669,76.5729816 353,79.4462608 353,82.7817259 Z" id="To-dos" fill="#B0DADC" opacity="0.5"></path>
                <g id="oo" transform="translate(75.000000, 35.000000)">
                    <path d="M66.451942,34.726694 C66.451942,45.658552 63.5301855,54.2076974 57.6865848,60.3743865 C51.8429842,66.5410757 43.7067039,69.624374 33.2775,69.624374 C26.7440298,69.624374 20.9816767,68.2128641 15.9902679,65.3898018 C10.998859,62.5667396 7.16405357,58.5124025 4.48573661,53.2266689 C1.80741964,47.9409354 0.46828125,41.7743387 0.46828125,34.726694 C0.46828125,23.7547925 3.36974777,15.2256685 9.17276786,9.13906626 C14.9757879,3.05246397 23.1323582,0.00920848357 33.6427232,0.00920848357 C40.1761934,0.00920848357 45.9385465,1.41070772 50.9299554,4.21374825 C55.9213642,7.01678877 59.7561696,11.0410937 62.4344866,16.2867839 C65.1128036,21.532474 66.451942,27.6790492 66.451942,34.726694 Z M19.3990179,34.726694 C19.3990179,41.3739043 20.5048215,46.3992802 22.7164621,49.8029723 C24.9281026,53.2066643 28.5295733,54.9084848 33.5209821,54.9084848 C38.4718105,54.9084848 42.0327012,53.216675 44.2037612,49.8330047 C46.3748211,46.4493343 47.4603348,41.4139478 47.4603348,34.726694 C47.4603348,28.0794836 46.3646761,23.0941506 44.1733259,19.7705454 C41.9819757,16.4469402 38.39065,14.7851625 33.3992411,14.7851625 C28.4484127,14.7851625 24.877377,16.4369295 22.6860268,19.7405129 C20.4946765,23.0440964 19.3990179,28.0394401 19.3990179,34.726694 Z" id="Combined-Shape" fill-opacity="0.5" fill="#B0DADC"></path>
                    <path d="M215.409978,59.0856683 C215.409978,70.0175264 212.488221,78.5666717 206.644621,84.7333609 C200.80102,90.90005 192.66474,93.9833484 182.235536,93.9833484 C175.702066,93.9833484 169.939712,92.5718384 164.948304,89.7487762 C159.956895,86.9257139 156.122089,82.8713768 153.443772,77.5856433 C150.765455,72.2999097 149.426317,66.1333131 149.426317,59.0856683 C149.426317,48.1137668 152.327783,39.5846429 158.130804,33.4980406 C163.933824,27.4114383 172.090394,24.3681828 182.600759,24.3681828 C189.134229,24.3681828 194.896582,25.7696821 199.887991,28.5727226 C204.8794,31.3757631 208.714205,35.4000681 211.392522,40.6457582 C214.070839,45.8914483 215.409978,52.0380236 215.409978,59.0856683 Z M200.859702,46.7089975 C199.484678,45.3400697 197.248542,45.3400697 195.873373,46.7088678 L177.224617,65.2732608 L170.865842,58.9432592 C169.490848,57.5744991 167.254865,57.5745416 165.879703,58.943059 C164.513349,60.3032185 164.513349,62.5014413 165.879507,63.8614061 L174.731463,72.6731022 C176.106027,74.0418453 178.343095,74.0415479 179.717783,72.6730927 L200.859637,51.6270851 C202.225784,50.2672677 202.225742,48.0689801 200.859702,46.7089975 Z M200.859702,46.7089975 L199.544744,47.9950785 L200.859702,46.7089975 Z" id="Combined-Shape" fill="#FFFFFF"></path>
                </g>
                <path d="M239.956807,48.7539543 L235,35.2460457 L237.299672,35.2460457 L240.075961,43.2056239 C240.624072,44.8049289 240.973587,45.9982386 241.124516,46.7855888 L241.219839,46.7855888 C241.24367,46.6789684 241.273458,46.5579972 241.309205,46.4226714 C241.344951,46.2873455 241.386655,46.1397196 241.434316,45.9797891 C241.481978,45.8198586 241.775888,44.8951461 242.316056,43.2056239 L245.10426,35.2460457 L247.392017,35.2460457 L242.423295,48.7539543 L239.956807,48.7539543 Z M251.490915,35.2460457 L251.490915,43.943761 C251.490915,45.034569 251.727234,45.8444613 252.199881,46.3734622 C252.672527,46.9024631 253.405317,47.1669596 254.398272,47.1669596 C255.740747,47.1669596 256.717801,46.7814918 257.329461,46.0105448 C257.941121,45.2395978 258.246947,43.9970795 258.246947,42.2829525 L258.246947,35.2460457 L260.403634,35.2460457 L260.403634,48.7539543 L258.640155,48.7539543 L258.330354,46.970123 L258.223116,46.970123 C257.833878,47.6180466 257.281803,48.1183345 256.566875,48.4710018 C255.851948,48.823669 255.02185,49 254.076556,49 C252.503716,49 251.318145,48.6104315 250.519809,47.831283 C249.721474,47.0521344 249.322312,45.8055153 249.322312,44.0913884 L249.322312,35.2460457 L251.490915,35.2460457 Z M270.114686,49 C268.152607,49 266.613549,48.3869423 265.497468,47.1608084 C264.381387,45.9346746 263.823354,44.2472281 263.823354,42.0984183 C263.823354,39.9332053 264.343655,38.2088523 265.384272,36.9253076 C266.424889,35.6417628 267.830892,35 269.602324,35 C271.246657,35 272.557338,35.5474462 273.534406,36.642355 C274.511473,37.7372638 275,39.2196743 275,41.0896309 L275,42.43058 L266.039619,42.43058 C266.079337,43.9642725 266.456654,45.1288771 267.171582,45.9244288 C267.886509,46.7199805 268.899308,47.1177504 270.210009,47.1177504 C270.909049,47.1177504 271.572333,47.0541893 272.199881,46.927065 C272.827428,46.7999408 273.562204,46.5518472 274.40423,46.1827768 L274.40423,48.1265378 C273.681359,48.4463988 273.002188,48.6719384 272.366696,48.8031634 C271.731205,48.9343885 270.980543,49 270.114686,49 Z M269.578493,36.8084359 C268.553763,36.8084359 267.743524,37.1487957 267.147751,37.8295255 C266.551978,38.5102553 266.198491,39.4575218 266.08728,40.6713533 L272.747989,40.6713533 C272.732102,39.4083124 272.450107,38.4487438 271.901996,37.7926186 C271.353885,37.1364935 270.579391,36.8084359 269.578493,36.8084359 Z" id="vue" fill="#FFFFFF"></path>
            </g>
        </g>
    </g>
</svg>